# xmcd
#
# Track frame offsets:
#  150
#  10997
#  20917
#  28812
#  38487
#  46737
#  56007
#  63232
#  70815
#  76887
#  86610
#  98647
#
# Disc length: 1414 seconds
#
# Revision: 0
# Processed by: cddbd v1.5.1PL2 Copyright (c) Steve Scherf et al.
# Submitted via: Collectorz.com_Music_Collector 6.11
#
DISCID=8f05840c
DTITLE=Bluegrass and Traditional - Up on the Mountain Vol 2
DYEAR=2003
DGENRE=Bluegrass - General Country - Traditional Country
TTITLE0=Whoa Mule
TTITLE1=Foggy Mountain Top
TTITLE2=Nine Pound Hammer
TTITLE3=Lonesome Road Blues
TTITLE4=Lee Highway Blues
TTITLE5=Salty Dog Rag
TTITLE6=Slew Foot (Bear Tracks)
TTITLE7=Ain't Nobody Gonna Miss Me When I'm Gone
TTITLE8=I Don't Love Nobody
TTITLE9=Mule Skinner Blues
TTITLE10=The Girl I Left in Sunny Tennessee
TTITLE11=Lonesome Valley
EXTD=
EXTT0=
EXTT1=
EXTT2=
EXTT3=
EXTT4=
EXTT5=
EXTT6=
EXTT7=
EXTT8=
EXTT9=
EXTT10=
EXTT11=
PLAYORDER=
